HIERARCHY
ROOT Hips
{
	OFFSET 0.00 0.00 0.00
	CHANNELS 6 Xposition Yposition Zposition Xrotation Yrotation Zrotation
	JOINT RightUpLeg
	{
		OFFSET -4.47808 0.00000 0.00000
		CHANNELS 3 Xrotation Yrotation Zrotation
		JOINT RightLeg
		{
			OFFSET 0.00000 -16.40577 0.00000
			CHANNELS 3 Xrotation Yrotation Zrotation
			JOINT RightFoot
			{
				OFFSET 0.00000 -14.64414 0.00000
				CHANNELS 3 Xrotation Yrotation Zrotation
				JOINT RightToeBase
				{
					OFFSET 0.00000 -1.50274 5.60831
					CHANNELS 3 Xrotation Yrotation Zrotation
					End Site
					{
						OFFSET 0.00000 0.00000 2.95275
					}
				}
			}
		}
	}
	JOINT LeftUpLeg
	{
		OFFSET 4.47808 0.00000 0.00000
		CHANNELS 3 Xrotation Yrotation Zrotation
		JOINT LeftLeg
		{
			OFFSET 0.00000 -16.40577 0.00000
			CHANNELS 3 Xrotation Yrotation Zrotation
			JOINT LeftFoot
			{
				OFFSET 0.00000 -14.64414 0.00000
				CHANNELS 3 Xrotation Yrotation Zrotation
				JOINT LeftToeBase
				{
					OFFSET 0.00000 -1.50274 5.60831
					CHANNELS 3 Xrotation Yrotation Zrotation
					End Site
					{
						OFFSET 0.00000 0.00000 2.95275
					}
				}
			}
		}
	}
	JOINT Spine
	{
		OFFSET 0.00000 6.06821 0.00000
		CHANNELS 3 Xrotation Yrotation Zrotation
		JOINT RightShoulder
		{
			OFFSET 0.00000 10.01392 0.00000
			CHANNELS 3 Xrotation Yrotation Zrotation
			JOINT RightArm
			{
				OFFSET -7.19022 0.00000 0.00000
				CHANNELS 3 Xrotation Yrotation Zrotation
				JOINT RightForeArm
				{
					OFFSET -10.17747 0.00000 0.00000
					CHANNELS 3 Yrotation Zrotation Xrotation
					JOINT RightHand
					{
						OFFSET -8.39211 0.00000 0.00000
						CHANNELS 3 Xrotation Yrotation Zrotation
						End Site
						{
							OFFSET -3.93700 0.00000 0.00000
						}
						JOINT RightHandThumb1
						{
							OFFSET 0.00000 0.00000 0.00000
							CHANNELS 3 Xrotation Zrotation Yrotation
							End Site
							{
								OFFSET 0.00000 0.00000 3.93700
							}
						}
					}
				}
			}
		}
		JOINT LeftShoulder
		{
			OFFSET 0.00000 10.01392 0.00000
			CHANNELS 3 Xrotation Yrotation Zrotation
			JOINT LeftArm
			{
				OFFSET 7.19022 0.00000 0.00000
				CHANNELS 3 Xrotation Yrotation Zrotation
				JOINT LeftForeArm
				{
					OFFSET 10.17747 0.00000 0.00000
					CHANNELS 3 Yrotation Zrotation Xrotation
					JOINT LeftHand
					{
						OFFSET 8.39211 0.00000 0.00000
						CHANNELS 3 Xrotation Yrotation Zrotation
						End Site
						{
							OFFSET 3.93700 0.00000 0.00000
						}
						JOINT LeftHandThumb1
						{
							OFFSET 0.00000 0.00000 0.00000
							CHANNELS 3 Xrotation Zrotation Yrotation
							End Site
							{
								OFFSET 0.00000 0.00000 3.93700
							}
						}
					}
				}
			}
		}
		JOINT Head
		{
			OFFSET 0.00000 15.77748 0.00000
			CHANNELS 3 Xrotation Yrotation Zrotation
			End Site
			{
				OFFSET 0.00000 4.52755 0.00000
			}
		}
	}
}
MOTION
Frames: 19
Frame Time: 0.008333
 -3.0293 33.3383 -3.7748 14.3106 2.2859 2.4636 -6.2848 -8.0626 -0.2953 0.9215 -0.0000 -0.0000 -12.2205 -8.9653 -2.1387 4.1525 -0.0000 0.0000 -9.7257 -3.1970 1.6796 5.1445 -0.0000 0.0000 -11.1726 5.5541 -13.0587 5.4448 -0.0000 -0.0000 -22.9039 1.3643 -5.4469 -30.7197 6.4885 -46.7534 -93.4960 -6.4870 32.9748 124.0713 0.0000 -4.8215 -1.0260 15.0902 3.9352 32.8623 0.0000 -24.3270 -0.8166 13.6800 14.1165 -4.7152 -28.5030 -89.5656 -12.3672 0.0000 17.2594 0.2621 1.2306 -12.0243 33.1476 -0.0000 26.2537 6.9132 -9.0840 7.4354
 -3.0337 33.3396 -3.7665 14.3154 2.1124 2.4695 -6.2861 -8.0975 -0.2691 0.8995 -0.0000 0.0000 -12.1533 -8.8320 -2.0910 4.0840 0.0000 -0.0000 -9.6424 -3.0260 1.7147 5.0656 0.0000 0.0000 -11.1670 5.5713 -13.0310 5.3991 0.0000 0.0000 -22.9579 1.4826 -5.4349 -30.6913 6.5452 -46.6959 -93.3886 -6.7208 33.2926 124.0861 0.0000 -5.0789 -0.8907 15.1327 3.4083 32.8623 0.0000 -24.3270 -0.7591 13.6794 14.1802 -4.5790 -28.4714 -89.5612 -12.4423 0.0000 17.1913 0.2684 1.2513 -12.1056 33.1476 -0.0000 26.2537 6.9513 -8.9577 7.5392
 -3.0386 33.3409 -3.7578 14.3300 1.9938 2.4633 -6.2870 -8.1824 -0.2341 0.8727 -0.0000 -0.0000 -12.1002 -8.7026 -2.0397 4.0886 -0.0000 0.0000 -9.5847 -2.9000 1.7534 4.9904 -0.0000 -0.0000 -11.1233 5.5525 -12.9996 5.3376 0.0000 -0.0000 -23.0326 1.5363 -5.4255 -30.6860 6.6167 -46.6418 -93.2443 -6.9606 33.6325 124.0710 0.0000 -5.3021 -0.7569 15.1680 2.8906 32.8623 0.0000 -24.3270 -0.7017 13.6893 14.2406 -4.4335 -28.4338 -89.5605 -12.5064 0.0000 17.1697 0.2626 1.2184 -12.1638 33.1476 -0.0000 26.2537 6.9853 -8.8431 7.6122
 -3.0410 33.3425 -3.7475 14.3405 1.8747 2.4588 -6.2886 -8.2328 -0.2049 0.8571 0.0000 -0.0000 -12.0489 -8.6204 -1.9876 4.0516 -0.0000 -0.0000 -9.5207 -2.7483 1.7848 4.9058 -0.0000 0.0000 -11.0702 5.5043 -13.0196 5.5647 0.0000 0.0000 -23.1118 1.5716 -5.4028 -30.6436 6.6921 -46.5983 -93.1041 -7.1940 33.9443 124.0357 0.0000 -5.6540 -0.5860 15.2217 2.2310 32.8623 0.0000 -24.3270 -0.6233 13.7203 14.2730 -4.2988 -28.3669 -89.5413 -12.5614 0.0000 17.1734 0.2584 1.1866 -12.2844 33.1476 -0.0000 26.2537 7.0146 -8.6837 7.6448
 -3.0412 33.3438 -3.7348 14.3421 1.7714 2.4403 -6.2705 -8.3189 -0.1664 0.8328 0.0000 -0.0000 -11.9853 -8.5354 -1.9172 4.0185 -0.0000 0.0000 -9.4407 -2.6277 1.8204 4.8053 0.0000 0.0000 -10.9949 5.5018 -13.0179 5.8411 0.0000 0.0000 -23.1948 1.5828 -5.3568 -30.5862 6.7823 -46.5659 -92.9418 -7.4368 34.2432 123.9940 0.0000 -6.0223 -0.3909 15.2226 1.4886 32.8623 0.0000 -24.3270 -0.5325 13.7395 14.2853 -4.1574 -28.3199 -89.5201 -12.6227 0.0000 17.1236 0.2594 1.1845 -12.3554 33.1476 -0.0000 26.2537 7.0665 -8.5415 7.6553
 -3.0470 33.3449 -3.7264 14.3527 1.7050 2.3977 -6.2745 -8.3791 -0.0941 0.8420 0.0000 0.0000 -11.9377 -8.5171 -1.8841 3.9592 0.0000 -0.0000 -9.4049 -2.5075 1.8918 4.7384 0.0000 0.0000 -10.9131 5.4956 -13.1108 6.1873 -0.0000 -0.0000 -23.2727 1.5512 -5.3114 -30.5316 6.8469 -46.5481 -92.8061 -7.7129 34.5354 123.9498 0.0000 -6.4413 -0.1661 15.2209 0.6327 32.8623 0.0000 -24.3270 -0.4585 13.7543 14.3007 -4.0358 -28.2776 -89.5007 -12.6499 0.0000 17.0988 0.2580 1.1700 -12.4376 33.1476 -0.0000 26.2537 7.0885 -8.4189 7.6508
 -3.0456 33.3471 -3.7088 14.3113 1.6278 2.3794 -6.2127 -8.4544 -0.0593 0.8393 -0.0000 -0.0000 -11.8829 -8.4713 -1.8024 3.9095 -0.0000 -0.0000 -9.2874 -2.3016 1.9291 4.6287 -0.0000 0.0000 -10.7951 5.4426 -13.2124 6.6850 0.0000 -0.0000 -23.3160 1.5119 -5.2627 -30.4917 6.9581 -46.5244 -92.6012 -7.9784 34.7940 123.8898 0.0000 -6.8677 0.0701 15.2299 -0.2668 32.8623 0.0000 -24.3270 -0.3955 13.7865 14.2868 -3.8811 -28.2309 -89.4712 -12.6490 0.0000 17.0670 0.2562 1.1601 -12.4547 33.1476 -0.0000 26.2537 7.1327 -8.2828 7.6102
 -3.0493 33.3489 -3.6894 14.2500 1.6490 2.3436 -6.0994 -8.6150 -0.0019 0.8040 -0.0000 -0.0000 -11.8266 -8.4434 -1.7815 3.8448 0.0000 -0.0000 -9.1711 -2.1429 1.9817 4.5281 0.0000 -0.0000 -10.6607 5.3502 -13.4086 7.3279 -0.0000 -0.0000 -23.3420 1.3869 -5.2599 -30.3727 6.9955 -46.4757 -92.5534 -8.2794 35.0451 123.8233 0.0000 -7.0916 0.2403 15.2095 -0.9160 32.8623 0.0000 -24.3270 -0.3506 13.8111 14.3043 -3.7463 -28.2090 -89.4576 -12.6084 0.0000 17.0504 0.2500 1.1323 -12.4520 33.1476 -0.0000 26.2537 7.1959 -8.1892 7.6132
 -3.0514 33.3510 -3.6730 14.1889 1.6591 2.3143 -6.0109 -8.6884 0.0440 0.8090 0.0000 -0.0000 -11.7925 -8.4731 -1.7762 3.8100 -0.0000 -0.0000 -9.0653 -1.9186 2.0259 4.4412 0.0000 -0.0000 -10.5367 5.2055 -13.5730 7.7647 0.0000 -0.0000 -23.3516 1.2862 -5.2532 -30.3011 7.0461 -46.4233 -92.5110 -8.6035 35.3329 123.7861 0.0000 -7.2104 0.3853 15.1306 -1.4758 32.8623 0.0000 -24.3270 -0.2994 13.8239 14.3042 -3.6580 -28.1508 -89.4516 -12.5282 0.0000 17.1290 0.2349 1.0654 -12.4328 33.1476 -0.0000 26.2537 7.2481 -8.1467 7.5738
 -3.0569 33.3542 -3.6628 14.1685 1.6784 2.2565 -5.9919 -8.6873 0.1182 0.8608 -0.0000 0.0000 -11.7595 -8.5919 -1.7275 3.7663 0.0000 0.0000 -9.0140 -1.6872 2.1085 4.3557 0.0000 0.0000 -10.4210 5.0295 -13.7997 8.3446 0.0000 0.0000 -23.4160 1.1845 -5.2025 -30.2103 7.1233 -46.3884 -92.4308 -8.9037 35.5411 123.7740 0.0000 -7.2475 0.5527 14.9933 -2.1354 32.8623 0.0000 -24.3270 -0.2055 13.7973 14.2690 -3.5927 -28.1266 -89.4195 -12.4471 0.0000 17.1194 0.2311 1.0473 -12.4463 33.1476 -0.0000 26.2537 7.3170 -8.1768 7.5050
 -3.0534 33.3569 -3.6424 14.1072 1.7101 2.2323 -5.9059 -8.7407 0.1426 0.8807 0.0000 -0.0000 -11.7355 -8.6480 -1.6967 3.7070 0.0000 -0.0000 -8.8737 -1.5173 2.1380 4.2161 0.0000 0.0000 -10.2927 4.9002 -13.9769 8.5125 -0.0000 0.0000 -23.4541 1.0871 -5.1876 -30.1451 7.2570 -46.3227 -92.3435 -9.2336 35.7109 123.7712 0.0000 -7.1560 0.6760 14.7217 -2.6584 32.8623 0.0000 -24.3270 -0.1660 13.7867 14.2595 -3.5078 -28.0821 -89.4332 -12.3267 0.0000 17.1076 0.2410 1.0879 -12.4899 33.1476 -0.0000 26.2537 7.4088 -8.2173 7.4420
 -3.0548 33.3600 -3.6260 14.0556 1.7318 2.2086 -5.8475 -8.7085 0.1772 0.9285 0.0000 0.0000 -11.7078 -8.7761 -1.6846 3.6053 -0.0000 -0.0000 -8.7399 -1.3650 2.1807 4.0659 -0.0000 -0.0000 -10.1669 4.7622 -14.1480 8.8053 0.0000 -0.0000 -23.4688 1.0235 -5.2023 -30.0741 7.2895 -46.2429 -92.3520 -9.5743 35.8701 123.7644 0.0000 -7.0963 0.7989 14.6248 -3.1611 32.8623 0.0000 -24.3270 -0.1802 13.7705 14.2860 -3.4336 -28.0595 -89.4553 -12.1964 0.0000 17.1515 0.2572 1.1606 -12.4949 33.1476 -0.0000 26.2537 7.4653 -8.2981 7.4045
 -3.0574 33.3636 -3.6107 14.0118 1.7793 2.1815 -5.7992 -8.6703 0.2113 0.9847 -0.0000 -0.0000 -11.7084 -8.9196 -1.7099 3.5799 0.0000 0.0000 -8.6163 -1.2731 2.2279 3.9136 0.0000 -0.0000 -10.0442 4.6167 -14.2797 8.8375 -0.0000 -0.0000 -23.4913 0.9661 -5.2345 -30.0505 7.3453 -46.1485 -92.3021 -9.9104 36.0118 123.7464 0.0000 -6.9750 0.9029 14.5840 -3.5816 32.8623 0.0000 -24.3270 -0.2175 13.7296 14.3259 -3.3682 -28.0257 -89.4866 -12.0312 0.0000 17.1866 0.2732 1.2280 -12.5453 33.1476 -0.0000 26.2537 7.5406 -8.4395 7.4006
 -3.0587 33.3675 -3.5961 13.9615 1.8219 2.1484 -5.7532 -8.6186 0.2484 1.0557 -0.0000 0.0000 -11.6825 -9.0651 -1.7254 3.4849 0.0000 -0.0000 -8.4744 -1.2200 2.2745 3.7425 -0.0000 0.0000 -9.9244 4.5395 -14.4476 8.9376 -0.0000 0.0000 -23.4951 0.9069 -5.2349 -30.0395 7.4094 -46.0862 -92.3076 -10.3039 36.1994 123.7499 0.0000 -6.7134 1.0759 14.4805 -4.2952 32.8623 0.0000 -24.3270 -0.2583 13.7057 14.3192 -3.3254 -28.0163 -89.4969 -11.8236 0.0000 17.2066 0.2760 1.2414 -12.5362 33.1476 -0.0000 26.2537 7.5591 -8.5216 7.3120
 -3.0608 33.3710 -3.5812 13.9252 1.8679 2.1266 -5.7202 -8.5575 0.2741 1.1248 -0.0000 0.0000 -11.6954 -9.2098 -1.7400 3.5113 -0.0000 -0.0000 -8.3465 -1.1693 2.3088 3.5797 -0.0000 0.0000 -9.8287 4.4585 -14.5848 9.0794 0.0000 -0.0000 -23.5278 0.8917 -5.2766 -29.9910 7.4248 -45.9938 -92.2795 -10.6158 36.2431 123.7239 0.0000 -6.6905 1.1996 14.4885 -4.7844 32.8623 0.0000 -24.3270 -0.2985 13.6498 14.3564 -3.3125 -27.9963 -89.5370 -11.5982 0.0000 17.2902 0.2798 1.2574 -12.5458 33.1476 -0.0000 26.2537 7.6626 -8.6681 7.3260
 -3.0608 33.3744 -3.5667 13.8801 1.9661 2.0970 -5.6701 -8.6182 0.2984 1.1897 0.0000 -0.0000 -11.6914 -9.2752 -1.7534 3.4414 -0.0000 -0.0000 -8.2198 -1.1840 2.3408 3.4153 0.0000 0.0000 -9.7126 4.3571 -14.6507 9.1327 0.0000 0.0000 -23.5385 0.8320 -5.3025 -29.9528 7.4444 -45.9360 -92.2988 -10.9769 36.3715 123.7292 0.0000 -6.5308 1.3595 14.3939 -5.4534 32.8623 0.0000 -24.3270 -0.3887 13.5918 14.3576 -3.2567 -28.0116 -89.5482 -11.3803 0.0000 17.3365 0.2763 1.2408 -12.5543 33.1476 -0.0000 26.2537 7.6782 -8.7936 7.2357
 -3.0591 33.3779 -3.5551 13.8533 2.0638 2.0704 -5.6720 -8.7951 0.3138 1.3111 0.0000 0.0000 -11.7111 -9.2387 -1.7552 3.3785 -0.0000 -0.0000 -8.1231 -1.2046 2.3617 3.2670 0.0000 0.0000 -9.6165 4.2622 -14.7211 9.3625 0.0000 -0.0000 -23.5646 0.8075 -5.3259 -29.8724 7.4008 -45.8987 -92.3580 -11.3098 36.4555 123.7332 0.0000 -6.3724 1.5549 14.4279 -6.2176 32.8623 0.0000 -24.3270 -0.4319 13.5340 14.3452 -3.2767 -28.0015 -89.5643 -11.1675 0.0000 17.4299 0.2780 1.2443 -12.5946 33.1476 -0.0000 26.2537 7.7076 -8.9214 7.1740
 -3.0583 33.3797 -3.5426 13.8177 2.1838 2.0353 -5.6256 -8.8238 0.3330 1.3689 0.0000 -0.0000 -11.7286 -9.3243 -1.7405 3.3693 0.0000 0.0000 -8.0242 -1.2606 2.3881 3.1334 -0.0000 -0.0000 -9.5430 4.1910 -14.7588 9.2353 0.0000 -0.0000 -23.5854 0.7556 -5.3426 -29.8498 7.4393 -45.8697 -92.3224 -11.6321 36.5308 123.7443 0.0000 -6.2244 1.8227 14.3684 -7.3076 32.8623 0.0000 -24.3270 -0.4965 13.4702 14.3317 -3.2695 -28.0108 -89.5727 -10.9720 0.0000 17.5140 0.2835 1.2644 -12.6382 33.1476 -0.0000 26.2537 7.7555 -9.0175 7.0929
 -3.0567 33.3814 -3.5327 13.7895 2.3117 2.0043 -5.5943 -8.8416 0.3432 1.4325 0.0000 -0.0000 -11.7480 -9.4121 -1.7549 3.3299 0.0000 -0.0000 -7.9428 -1.3362 2.4063 3.0078 0.0000 0.0000 -9.4731 4.1264 -14.7768 9.2616 -0.0000 0.0000 -23.6015 0.7099 -5.3603 -29.8049 7.4372 -45.8446 -92.3385 -11.9414 36.6052 123.7410 0.0000 -6.0153 2.0831 14.3757 -8.3346 32.8623 0.0000 -24.3270 -0.5578 13.4084 14.3054 -3.2767 -28.0411 -89.5655 -10.8056 0.0000 17.5570 0.2923 1.2966 -12.7045 33.1476 -0.0000 26.2537 7.7576 -9.1966 6.9830
